# xmcd CD database file
#
# Track frame offsets:
#	150
#	17850
#	30900
#	49625
#	64620
#	82600
#	101300
#	115550
#	135000
#	146712
#	164012
#
# Disc length: 2512 seconds
#
# Revision: 0
# Processed by: cddbd v1.5PL3 Copyright (c) Steve Scherf et al.
# Submitted via: CDex 1.50
#
DISCID=7709ce0b
DTITLE=ZIGGY - HEAVEN AND HELL(COMPLETE BOX Disk1)
DYEAR=2004
DGENRE=Hard Rock
TTITLE0=MY CONVICTON
TTITLE1=ONE WAY TRAIN〜ROCK'N'ROLL IS STILL ALIVE〜
TTITLE2=AGAIN
TTITLE3=SO HAPPY
TTITLE4=HEAVEN AND HELL
TTITLE5=CELEBRATION
TTITLE6=SLAVE OF LOVE
TTITLE7=サダメノツルギ
TTITLE8=明日は誰も知らない
TTITLE9=希望という名の花
TTITLE10=You don't have to worry
EXTD=YEAR: 2004
EXTT0=
EXTT1=
EXTT2=
EXTT3=
EXTT4=
EXTT5=
EXTT6=
EXTT7=
EXTT8=
EXTT9=
EXTT10=
PLAYORDER=
